#!OML:ASF E:/inclinewalkrobotboard/Project1/Captureday1/Session1/subject1.ASF
:FULLY-SPECIFIED
:DEGREES
88
root 0 0 0 -1.7469159784467552 -5.36967430009687 -7.351640776152344
lowerback 10.104435753616254 2.462945059611967 5.680808551384549
upperback 0.05984143080732501 4.020839528312235 1.4637950768570525
thorax -5.523604095419934 1.8520842709521608 -2.2292144522675352
lowerneck -14.815876900699875 -3.3405323318771614 -0.970623292449233
upperneck 17.449589157786868 -4.5863580429028215 1.3312981695918564
head 8.024703517644351 -2.1388174497199857 0.0929985249502654
rclavicle -1.464760447611268E-16 -4.7757643231640846E-17
rhumerus -19.06194510555679 -6.664863176163566 -66.77141668593512
rradius 62.50977920150916
rwrist -8.819543079618661
rhand -13.102978675307257 -10.712382857012416
rfingers 7.125019999999854
rthumb 13.022619334670187 -39.91822859578864
lclavicle -8.532599457348259E-16 -3.878217380799144E-16
lhumerus -40.00119686828795 0.29318947391953537 83.3198062274839
lradius 38.72850914114217
lwrist 2.5381085521654043
lhand -19.058039134946235 -0.28925422450669025
lfingers 7.125019999999871
lthumb 7.143860234274246 29.198255120528284
rfemur -4.367130831571016 3.6073697920776198 17.61351952369129
rtibia 22.888287928591225
rfoot -5.786631495497254 -3.2036942918484312
rtoes 2.079945246000263
lfemur -16.11628677124431 -1.728399597987743 -12.720772446771722
ltibia 37.34057572878793
lfoot -8.88463962358136 1.0332343968827056
ltoes -20.225192620270537
89
root 0 0 0 -1.7266801065764035 -5.3545707133533735 -7.34103172402283
lowerback 10.098035845345603 2.466779225737385 5.649713924547305
upperback 0.05078800123601224 4.022908393056642 1.4484934200477468
thorax -5.5294909325724015 1.8522454066795246 -2.2280954410859932
lowerneck -14.735944893184408 -3.335891573410208 -0.9487192864465332
upperneck 17.355767987724164 -4.587335479965577 1.3520277139175554
head 7.988556089386801 -2.1372016891781036 0.09895817889975039
rclavicle -1.501181518529182E-16 -4.6867029777590506E-17
rhumerus -19.119720749184808 -6.714228538331939 -66.8281299144658
rradius 62.34693847358356
rwrist -8.756651849275615
rhand -13.122819151992896 -10.570678146641873
rfingers 7.1250199999998545
rthumb 13.003832320866573 -39.77911580939455
lclavicle -8.672542237312867E-16 -3.9890080831232763E-16
lhumerus -40.22926044004196 0.31249235342375964 83.3419821197827
lradius 39.02408496841724
lwrist 2.4358857547995565
lhand -18.821019693294204 -1.011868611843136
lfingers 7.125019999999866
lthumb 7.368327187027116 28.46690631902967
rfemur -4.488903957264407 3.0721551765180943 16.30220184576558
rtibia 23.848401495563216
rfoot -4.1171767186277295 -2.7654203490919165
rtoes 2.7124679625992956
lfemur -15.21303418198833 -1.935872499868829 -12.93382351668253
ltibia 35.99011631171797
lfoot -9.769625919317722 1.5867540899427741
ltoes -21.29231797234257
90
root 0 0 0 -1.7049677166652104 -5.3163915713615655 -7.293948943292005
lowerback 10.092371678651181 2.458852852406294 5.577954778585607
upperback 0.0405258726931918 4.004541297618552 1.4296268519159152
thorax -5.5372199219441045 1.8430960867230106 -2.205592693136377
lowerneck -14.644441660612674 -3.328473483257538 -0.9268764076619639
upperneck 17.242840289581366 -4.584784901547664 1.3759852436162707
head 7.94733221609868 -2.1337475992199697 0.10696714366078597
rclavicle -1.6082484251424906E-16 -5.175843904302178E-17
rhumerus -19.274349254165 -6.872716173902498 -66.99303288547611
rradius 61.848370374128564
rwrist -8.57311621788579
rhand -13.1875359907667 -10.113927866868927
rfingers 7.125019999999857
rthumb 12.941260095763965 -39.33091822520055
lclavicle -8.764247717383023E-16 -4.0679241931764316E-16
lhumerus -40.428479369373946 0.32346069046861636 83.36091720025628
lradius 39.296041437802
lwrist 2.3481171491542496
lhand -18.61085677545538 -1.6559327416254472
lfingers 7.125019999999862
lthumb 7.567783488036378 27.814642509692984
rfemur -5.407924127047797 2.48071633545056 15.18449689657653
rtibia 26.03696397105992
rfoot -2.2080409640963374 -2.4915781763355094
rtoes 3.5709771562962245
lfemur -14.00029950137446 -2.1570528055457827 -13.346165927063847
ltibia 34.47484612510929
lfoot -10.693778760285852 2.0721419205179226
ltoes -22.124782243370337
91
root 0 0 0 -1.6925046359685876 -5.292135694833769 -7.263302349671536
lowerback 10.089397744987384 2.45345749275552 5.533026077731417
upperback 0.03429425600422753 3.992547331040424 1.4182942282397617
thorax -5.542496657322568 1.837224859255803 -2.1910922174643988
lowerneck -14.591248394063147 -3.324334426684408 -0.9145007003039722
upperneck 17.1753667441085 -4.583521380764116 1.3904908932736246
head 7.922927891770781 -2.131875264599526 0.11190119028480933
rclavicle -1.6508121636100864E-16 -5.778362500948631E-17
rhumerus -19.36232999008055 -6.9658119127247735 -67.08808834195334
rradius 61.55620736242959
rwrist -8.468132042827918
rhand -13.225293903889021 -9.84564258032218
rfingers 7.125019999999858
rthumb 12.904224420153515 -39.067841541874216
lclavicle -8.778658132467645E-16 -4.097768309378858E-16
lhumerus -40.47712775163039 0.32318462728176556 83.36613871321508
lradius 39.368342730030854
lwrist 2.327596138767631
lhand -18.55772714929553 -1.8195733495445268
lfingers 7.125019999999861
lthumb 7.618598901914067 27.648833103989308
rfemur -5.951802453568864 2.3638615706657395 15.022123355621364
rtibia 26.714841572595304
rfoot -1.8610263968261846 -2.547680957320443
rtoes 3.7217646749237825
lfemur -13.181503532137649 -2.297433214559492 -13.641542251275897
ltibia 33.50199268397011
lfoot -11.279122732264067 2.3604755389907446
ltoes -22.602467682990007
92
root 0 0 0 -1.683161089044288 -5.272053938387568 -7.237588256884751
lowerback 10.087100760473458 2.4482534261108233 5.496832885850668
upperback 0.029794362067876168 3.981533227566603 1.4099777232365738
thorax -5.5465514242785305 1.8320257519650895 -2.1784715857810006
lowerneck -14.552898572240917 -3.321188036791554 -0.9058345500412158
upperneck 17.1239996835647 -4.582386242037906 1.4015368442710954
head 7.905286870689349 -2.1303701481877413 0.11566736705869507
rclavicle -1.685406985886954E-16 -6.26132260105382E-17
rhumerus -19.43666461431065 -7.042975127285601 -67.17023470404945
rradius 61.310374984369716
rwrist -8.378811004973162
rhand -13.257418763171412 -9.621023022996862
rfingers 7.12501999999986
rthumb 12.873372614078368 -38.84694200106023
lclavicle -8.713206917383694E-16 -4.1124634615466103E-16
lhumerus -40.4709446576639 0.31953602386171776 83.36606350446952
lradius 39.36807232629435
lwrist 2.3303112881115178
lhand -18.56124457437475 -1.8109187688775013
lfingers 7.125019999999861
lthumb 7.6157880539551 27.659399830600755
rfemur -6.194574383056793 2.4475371995161597 15.17190095419473
rtibia 26.451004208482182
rfoot -2.208390033473021 -2.710438829837261
rtoes 3.507871420334345
lfemur -12.305229667869845 -2.44997901352205 -13.949062418920196
ltibia 32.44936129764093
lfoot -11.920171660988846 2.680132071608316
ltoes -23.152160780468964
93
root 0 0 0 -1.674884085113773 -5.250496881215752 -7.2098268753313155
lowerback 10.085031563951938 2.440897263253998 5.459821683768471
upperback 0.025906909108862397 3.9671629278101284 1.4033316808109055
thorax -5.550233560803438 1.8254488451953863 -2.163407914528576
lowerneck -14.52163346273965 -3.317905431528047 -0.899055284830433
upperneck 17.07971948350991 -4.580237611069929 1.4107410443018629
head 7.890912805684517 -2.1285664347625595 0.11894491037669175
rclavicle -1.7038766497556325E-16 -6.557079835740779E-17
rhumerus -19.48344736637393 -7.092878660692703 -67.22298135999156
rradius 61.150804811714174
rwrist -8.322225613546212
rhand -13.278390303837686 -9.474125707948868
rfingers 7.125019999999861
rthumb 12.853098381037412 -38.70257930313991
lclavicle -8.644960076830241E-16 -4.110212230917854E-16
lhumerus -40.441764028487455 0.31311963485894584 83.36373227143675
lradius 39.339702459569004
lwrist 2.3435481546750427
lhand -18.588187428649192 -1.7303748918596664
lfingers 7.125019999999861
lthumb 7.590484605925235 27.74140054099793
rfemur -6.159714065190127 2.6244452524281634 15.396036966649145
rtibia 25.491480185635705
rfoot -2.9087117690810516 -2.8900540283948537
rtoes 3.069858569065104
lfemur -11.31908037053305 -2.624234903391598 -14.294564314320846
ltibia 31.250791138439915
lfoot -12.646666119767566 3.043375297409276
ltoes -23.775693891564412
94
root 0 0 0 -1.6694385008473058 -5.224812919302691 -7.173907908893196
lowerback 10.08371310378833 2.4289445219334236 5.416865592841719
upperback 0.02345180303974903 3.9456260121166973 1.3988116542937412
thorax -5.55283213556393 1.815780500882846 -2.1418902498262895
lowerneck -14.501714381400324 -3.314239208017936 -0.8961067815920021
upperneck 17.048444334140946 -4.576218960999579 1.4166955389321503
head 7.881745266224669 -2.126214697101665 0.1215527743054387
rclavicle -1.7158695807165932E-16 -6.797945535813109E-17
rhumerus -19.51845175125594 -7.130093762685583 -67.26170494450118
rradius 61.03279734613756
rwrist -8.280389749781989
rhand -13.29384461198547 -9.365387042771442
rfingers 7.125019999999862
rthumb 12.838105891922245 -38.5957345765512
lclavicle -8.592408393771728E-16 -4.1087742023652244E-16
lhumerus -40.404824547821754 0.30816065624487615 83.36045414472999
lradius 39.29671209811922
lwrist 2.3596462950247
lhand -18.624273289124826 -1.6206551922585835
lfingers 7.125019999999862
lthumb 7.556218072127232 27.852872285494392
rfemur -5.995941111373687 2.788082788340639 15.546931614992802
rtibia 24.396233199016116
rfoot -3.5734900701562298 -3.022447852089016
rtoes 2.6278471293604517
lfemur -10.232687633001959 -2.810942646527823 -14.697958476500965
ltibia 29.952546901470907
lfoot -13.410575344791834 3.406926011673295
ltoes -24.358693502112775
